<?xml version="1.0" encoding="utf-8"?><!-- Generator: Adobe Illustrator 24.3.0, SVG Export Plug-In . SVG Version: 6.00 Build 0)  --><svg version="1.1" id="Layer_1" xmlns="http://www.w3.org/2000/svg" xmlns:xlink="http://www.w3.org/1999/xlink" x="0px" y="0px"	 viewBox="0 0 233 21.43" style="enable-background:new 0 0 233 21.43;" xml:space="preserve"><style type="text/css">	.st0{fill:#5A318B;}</style><g>	<path class="st0" d="M13.45,10.63l-0.09,0.06l0.09,0.06l4.4,3.09c0,0,1.13,0.88,1.13,1.88c0,1.01,0.01,5.63,0.01,5.63h-4.65v-4.59		L9.5,13.42l-4.84,3.35v4.59H0c0,0,0.01-4.63,0.01-5.63c0-1.01,1.13-1.88,1.13-1.88l4.4-3.09l0.09-0.06l-0.09-0.06l-4.4-3.09		c0,0-1.13-0.88-1.13-1.88S0,0.02,0,0.02h4.65v4.59L9.5,7.95l4.84-3.35V0.02h4.65c0,0-0.01,4.63-0.01,5.63s-1.13,1.88-1.13,1.88		L13.45,10.63z M58.73,13.51l4.41,7.85l-5.14,0l-4.08-7.32h-4.9v7.32h-4.7v-7.32v-5.3V0h11.43c4.08,0,7.41,2.74,7.41,7.02		C63.15,10.19,61.33,12.51,58.73,13.51z M58.47,7.02c0-1.56-1.27-2.83-2.83-2.83v0h-6.62v5.66h6.62v0		C57.2,9.85,58.47,8.58,58.47,7.02z M66.8,21.36l4.7,0V0.01l-4.7,0V21.36z M23.29,0.02v21.3v0.04l16.53,0v-4.26H28v-4.59h10.77V8.47		H28V4.19h11.84V0.02L23.29,0.02z M99.43,0.02v21.34l4.7,0V0.02L99.43,0.02z M90.49,14.63L80.79,0.01h-5.08v21.34l4.7,0V6.68		l9.75,14.67l5.02,0V0.01l-4.7,0V14.63z"/>	<g>		<rect x="118.27" y="0.01" class="st0" width="1" height="21.35"/>	</g>	<g>		<path class="st0" d="M132.84,6.12c0.49,0.53,1.27,0.99,2.27,0.99c1.03,0,1.44-0.51,1.44-0.98c0-0.64-0.76-0.84-1.63-1.06			c-1.17-0.29-2.55-0.63-2.55-2.15c0-1.18,1.04-2.1,2.61-2.1c1.12,0,2.02,0.35,2.69,1l-0.72,0.93c-0.56-0.56-1.32-0.82-2.07-0.82			c-0.74,0-1.21,0.35-1.21,0.89c0,0.56,0.73,0.74,1.58,0.96c1.18,0.3,2.59,0.67,2.59,2.22c0,1.19-0.84,2.21-2.77,2.21			c-1.32,0-2.28-0.46-2.91-1.14L132.84,6.12z"/>		<path class="st0" d="M142.54,0.81c2.15,0,3.66,1.57,3.66,3.71c0,2.14-1.51,3.71-3.66,3.71s-3.66-1.57-3.66-3.71			C138.88,2.38,140.39,0.81,142.54,0.81z M142.54,1.93c-1.45,0-2.37,1.11-2.37,2.59c0,1.47,0.92,2.59,2.37,2.59			c1.44,0,2.37-1.12,2.37-2.59C144.92,3.04,143.98,1.93,142.54,1.93z"/>		<path class="st0" d="M147.63,0.93h4.91v1.11h-3.65V3.9h3.58V5h-3.58V8.1h-1.26V0.93z"/>		<path class="st0" d="M155.7,2.04h-2.17V0.93h5.6v1.11h-2.17V8.1h-1.26V2.04z"/>		<path class="st0" d="M164.6,2.81l-1.39,5.29h-1.34l-2.05-7.17h1.41l1.4,5.52l1.48-5.52h1l1.48,5.52l1.39-5.52h1.41l-2.04,7.17			h-1.34L164.6,2.81z"/>		<path class="st0" d="M174.6,6.72h-3.4l-0.53,1.38h-1.38l2.82-7.17h1.57l2.82,7.17h-1.38L174.6,6.72z M171.56,5.62h2.69L172.9,2			L171.56,5.62z"/>		<path class="st0" d="M180.11,5.42h-1.25V8.1h-1.26V0.93h3.15c1.42,0,2.34,0.92,2.34,2.25c0,1.28-0.84,1.97-1.7,2.11l1.75,2.82			h-1.45L180.11,5.42z M180.58,2.04h-1.72v2.28h1.72c0.71,0,1.22-0.45,1.22-1.14S181.29,2.04,180.58,2.04z"/>		<path class="st0" d="M184.67,0.93h4.91v1.11h-3.65V3.9h3.58V5h-3.58v1.99h3.65V8.1h-4.91V0.93z"/>		<path class="st0" d="M194.27,0.93h2.67c2.23,0,3.75,1.48,3.75,3.59c0,2.11-1.52,3.58-3.75,3.58h-2.67V0.93z M196.94,6.99			c1.56,0,2.46-1.12,2.46-2.47c0-1.39-0.86-2.48-2.46-2.48h-1.41v4.95H196.94z"/>		<path class="st0" d="M202.22,0.93h4.91v1.11h-3.65V3.9h3.58V5h-3.58v1.99h3.65V8.1h-4.91V0.93z"/>		<path class="st0" d="M208.98,6.12c0.49,0.53,1.27,0.99,2.27,0.99c1.03,0,1.44-0.51,1.44-0.98c0-0.64-0.76-0.84-1.63-1.06			c-1.17-0.29-2.55-0.63-2.55-2.15c0-1.18,1.04-2.1,2.61-2.1c1.12,0,2.02,0.35,2.69,1l-0.72,0.93c-0.56-0.56-1.32-0.82-2.07-0.82			c-0.74,0-1.21,0.35-1.21,0.89c0,0.56,0.73,0.74,1.58,0.96c1.18,0.3,2.59,0.67,2.59,2.22c0,1.19-0.84,2.21-2.77,2.21			c-1.32,0-2.28-0.46-2.91-1.14L208.98,6.12z"/>		<path class="st0" d="M215.66,0.93h1.26V8.1h-1.26V0.93z"/>		<path class="st0" d="M222.2,0.81c1.4,0,2.31,0.67,2.89,1.49l-1.03,0.58c-0.38-0.54-1.05-0.96-1.86-0.96			c-1.42,0-2.47,1.09-2.47,2.59c0,1.5,1.05,2.6,2.47,2.6c0.73,0,1.38-0.34,1.7-0.64V5.36h-2.14V4.25h3.4v2.69			c-0.71,0.78-1.71,1.3-2.96,1.3c-2.07,0-3.76-1.47-3.76-3.72C218.44,2.27,220.13,0.81,222.2,0.81z"/>		<path class="st0" d="M228.05,2.88V8.1h-1.26V0.93h1.29l3.66,5.08V0.93H233V8.1h-1.21L228.05,2.88z"/>		<path class="st0" d="M136.87,15.96l-1.09,4.49h-1.96l-2.05-7.17h2.07l1.08,4.78l1.23-4.78h1.42l1.22,4.78l1.07-4.78h2.07			l-2.04,7.17h-1.96L136.87,15.96z"/>		<path class="st0" d="M143.4,13.28h1.85v7.17h-1.85V13.28z"/>		<path class="st0" d="M148.46,14.9h-2.01v-1.61h5.86v1.61h-2v5.55h-1.85V14.9z"/>		<path class="st0" d="M158.33,17.57h-2.98v2.88h-1.85v-7.17h1.85v2.68h2.98v-2.68h1.85v7.17h-1.85V17.57z"/>		<path class="st0" d="M165.33,18.06c0.52,0.52,1.31,0.95,2.29,0.95c0.63,0,1.02-0.27,1.02-0.61c0-0.41-0.46-0.57-1.22-0.73			c-1.18-0.24-2.84-0.54-2.84-2.23c0-1.2,1.02-2.25,2.86-2.25c1.15,0,2.15,0.34,2.91,1l-1.01,1.32c-0.6-0.49-1.39-0.74-2.02-0.74			c-0.61,0-0.85,0.25-0.85,0.56c0,0.38,0.44,0.5,1.24,0.66c1.18,0.25,2.82,0.59,2.82,2.21c0,1.44-1.06,2.4-2.99,2.4			c-1.45,0-2.46-0.45-3.18-1.14L165.33,18.06z"/>		<path class="st0" d="M175.17,13.17c2.19,0,3.82,1.53,3.82,3.71c0,2.18-1.63,3.71-3.82,3.71c-2.19,0-3.84-1.53-3.84-3.71			C171.33,14.69,172.97,13.17,175.17,13.17z M175.17,14.8c-1.19,0-1.96,0.9-1.96,2.07c0,1.16,0.76,2.07,1.96,2.07			c1.18,0,1.94-0.91,1.94-2.07C177.11,15.7,176.35,14.8,175.17,14.8z"/>		<path class="st0" d="M180.25,13.28h1.88v4.2c0,0.85,0.45,1.46,1.45,1.46c0.99,0,1.44-0.61,1.44-1.46v-4.2h1.88v4.25			c0,1.78-1.02,3.04-3.32,3.04c-2.3,0-3.33-1.27-3.33-3.03V13.28z"/>		<path class="st0" d="M188.51,13.28h1.85v5.55h2.88v1.61h-4.73V13.28z"/>	</g></g></svg>